<?xml version="1.0" standalone="no"?>
<!DOCTYPE svg PUBLIC "-//W3C//DTD SVG 20010904//EN"
 "http://www.w3.org/TR/2001/REC-SVG-20010904/DTD/svg10.dtd">
<svg version="1.0" xmlns="http://www.w3.org/2000/svg"
 width="512.000000pt" height="512.000000pt" viewBox="0 0 512.000000 512.000000"
 preserveAspectRatio="xMidYMid meet">
<metadata>
Created by potrace 1.14, written by Peter Selinger 2001-2017
</metadata>
<g transform="translate(0.000000,512.000000) scale(0.100000,-0.100000)"
fill="#000000" stroke="none">
<path d="M2450 4944 c-34 -9 -168 -80 -360 -191 -168 -96 -325 -187 -350 -201
-25 -14 -57 -33 -72 -43 -14 -11 -28 -19 -31 -19 -2 0 -112 -62 -243 -138
-132 -76 -360 -208 -508 -293 -160 -92 -290 -174 -322 -202 -71 -65 -122 -165
-132 -262 -4 -39 -7 -522 -6 -1075 1 -951 2 -1009 19 -1065 24 -76 72 -153
125 -198 35 -30 144 -95 516 -309 22 -12 107 -61 187 -108 81 -47 164 -95 185
-106 20 -12 93 -54 162 -94 69 -40 150 -86 180 -103 30 -16 60 -33 65 -38 11
-8 232 -136 315 -182 30 -17 82 -47 115 -67 130 -79 252 -105 366 -76 44 11
122 50 249 123 102 59 269 155 373 215 304 176 542 313 891 514 355 204 421
252 469 347 53 101 53 93 51 1212 l-1 1040 -25 67 c-31 82 -76 142 -143 192
-38 29 -735 436 -1063 622 -24 13 -192 110 -374 216 -182 105 -354 200 -382
211 -65 25 -183 30 -256 11z"/>
</g>
</svg>
